<svg width="253" height="263" xmlns="http://www.w3.org/2000/svg" xmlns:xlink="http://www.w3.org/1999/xlink" xml:space="preserve" overflow="hidden"><defs><clipPath id="clip0"><rect x="1822" y="790" width="253" height="263"/></clipPath></defs><g clip-path="url(#clip0)" transform="translate(-1822 -790)"><path d="M1953.14 901.085C1947.52 900.582 1941.71 902.231 1937.04 906.151 1936.04 906.993 1935.11 907.924 1934.27 908.931 1931.2 912.459 1929.05 916.7 1928.02 921.271 1926.65 926.914 1924.02 932.17 1920.33 936.643L1917.96 939.642C1915.93 942.082 1913.63 944.279 1911.1 946.191 1907.58 948.952 1904.75 952.491 1902.82 956.531 1899.7 962.809 1898.97 970.017 1900.76 976.799 1904.3 988.988 1917.02 995.988 1929.16 992.434 1931.26 991.82 1933.26 990.907 1935.1 989.724 1939.13 987.135 1943.77 985.65 1948.55 985.416L1952.78 985.278C1957.88 985.232 1962.88 986.721 1967.13 989.552 1968.42 990.361 1969.77 991.064 1971.18 991.655 1982.31 996.647 1995.37 991.633 2000.34 980.457 2000.86 979.277 2001.29 978.053 2001.6 976.799 2003.4 970.024 2002.69 962.822 1999.61 956.531 1997.65 952.497 1994.81 948.961 1991.3 946.191 1988.77 944.281 1986.46 942.083 1984.43 939.642L1982.03 936.643C1978.34 932.17 1975.71 926.914 1974.34 921.271 1973.33 916.691 1971.18 912.444 1968.09 908.931 1964.18 904.243 1958.76 901.588 1953.14 901.085ZM1896.27 886.687C1893.85 886.462 1891.43 886.789 1889.15 887.743 1880.01 891.558 1876.46 903.956 1881.21 915.434 1885.96 926.911 1897.23 933.123 1906.37 929.307 1915.5 925.492 1919.06 913.094 1914.31 901.617 1910.74 893.008 1903.51 887.362 1896.27 886.687ZM2006.45 886.686C1999.2 887.361 1991.97 893.007 1988.41 901.616 1983.65 913.094 1987.21 925.491 1996.35 929.307 2005.49 933.122 2016.75 926.911 2021.5 915.433 2026.26 903.955 2022.7 891.558 2013.56 887.742 2011.28 886.788 2008.86 886.461 2006.45 886.686ZM1979.39 841.342C1969.62 839.755 1959.78 850.412 1957.4 865.145 1955.03 879.878 1961.03 893.108 1970.8 894.695 1980.57 896.282 1990.41 885.625 1992.79 870.892 1995.16 856.16 1989.16 842.93 1979.39 841.342ZM1923.38 841.334C1913.61 842.921 1907.61 856.151 1909.98 870.884 1912.36 885.616 1922.2 896.273 1931.98 894.686 1941.75 893.099 1947.74 879.869 1945.37 865.136 1942.99 850.404 1933.15 839.747 1923.38 841.334ZM1948.5 790C2018.36 790 2075 848.874 2075 921.5 2075 994.125 2018.36 1053 1948.5 1053 1878.64 1053 1822 994.125 1822 921.5 1822 848.874 1878.64 790 1948.5 790Z" fill="#FF715B" fill-rule="evenodd"/></g></svg>